<mxfile host="app.diagrams.net" modified="2023-07-26T19:51:29.598Z" agent="Mozilla/5.0 (Windows NT 10.0; Win64; x64) AppleWebKit/537.36 (KHTML, like Gecko) Chrome/114.0.0.0 Safari/537.36" etag="E7kG0kex5GJ_QblepIVy" version="21.6.5" type="github">
  <diagram name="Page-1" id="GNaHjjKYyEBUvE5GxEoX">
    <mxGraphModel dx="1434" dy="756" grid="1" gridSize="10" guides="1" tooltips="1" connect="1" arrows="1" fold="1" page="1" pageScale="1" pageWidth="850" pageHeight="1100" math="0" shadow="0">
      <root>
        <mxCell id="0" />
        <mxCell id="1" parent="0" />
        <mxCell id="81QYwBYxxO3Fx5dXEa7t-5" style="edgeStyle=orthogonalEdgeStyle;rounded=0;orthogonalLoop=1;jettySize=auto;html=1;entryX=0;entryY=0.5;entryDx=0;entryDy=0;" edge="1" parent="1" source="81QYwBYxxO3Fx5dXEa7t-1" target="81QYwBYxxO3Fx5dXEa7t-2">
          <mxGeometry relative="1" as="geometry" />
        </mxCell>
        <mxCell id="81QYwBYxxO3Fx5dXEa7t-6" style="edgeStyle=orthogonalEdgeStyle;rounded=0;orthogonalLoop=1;jettySize=auto;html=1;" edge="1" parent="1" source="81QYwBYxxO3Fx5dXEa7t-1" target="81QYwBYxxO3Fx5dXEa7t-3">
          <mxGeometry relative="1" as="geometry" />
        </mxCell>
        <mxCell id="81QYwBYxxO3Fx5dXEa7t-7" style="edgeStyle=orthogonalEdgeStyle;rounded=0;orthogonalLoop=1;jettySize=auto;html=1;" edge="1" parent="1" source="81QYwBYxxO3Fx5dXEa7t-1" target="81QYwBYxxO3Fx5dXEa7t-4">
          <mxGeometry relative="1" as="geometry" />
        </mxCell>
        <mxCell id="81QYwBYxxO3Fx5dXEa7t-1" value="" style="rounded=1;whiteSpace=wrap;html=1;rotation=90;labelBackgroundColor=#66FF66;" vertex="1" parent="1">
          <mxGeometry x="67.5" y="290" width="290" height="105" as="geometry" />
        </mxCell>
        <mxCell id="81QYwBYxxO3Fx5dXEa7t-2" value="" style="rounded=1;whiteSpace=wrap;html=1;" vertex="1" parent="1">
          <mxGeometry x="470" y="140" width="210" height="80" as="geometry" />
        </mxCell>
        <mxCell id="81QYwBYxxO3Fx5dXEa7t-3" value="" style="rounded=1;whiteSpace=wrap;html=1;" vertex="1" parent="1">
          <mxGeometry x="470" y="280" width="210" height="80" as="geometry" />
        </mxCell>
        <mxCell id="81QYwBYxxO3Fx5dXEa7t-4" value="" style="rounded=1;whiteSpace=wrap;html=1;" vertex="1" parent="1">
          <mxGeometry x="470" y="440" width="210" height="80" as="geometry" />
        </mxCell>
        <mxCell id="81QYwBYxxO3Fx5dXEa7t-8" value="Loadbalancers" style="text;html=1;strokeColor=none;fillColor=none;align=center;verticalAlign=middle;whiteSpace=wrap;rounded=0;fontSize=18;" vertex="1" parent="1">
          <mxGeometry x="157.5" y="500" width="110" height="30" as="geometry" />
        </mxCell>
        <mxCell id="81QYwBYxxO3Fx5dXEa7t-9" value="server 1" style="text;html=1;strokeColor=none;fillColor=none;align=center;verticalAlign=middle;whiteSpace=wrap;rounded=0;" vertex="1" parent="1">
          <mxGeometry x="540" y="230" width="60" height="30" as="geometry" />
        </mxCell>
        <mxCell id="81QYwBYxxO3Fx5dXEa7t-11" value="server 2" style="text;html=1;strokeColor=none;fillColor=none;align=center;verticalAlign=middle;whiteSpace=wrap;rounded=0;" vertex="1" parent="1">
          <mxGeometry x="540" y="365" width="60" height="30" as="geometry" />
        </mxCell>
        <mxCell id="81QYwBYxxO3Fx5dXEa7t-12" value="server 3" style="text;html=1;strokeColor=none;fillColor=none;align=center;verticalAlign=middle;whiteSpace=wrap;rounded=0;" vertex="1" parent="1">
          <mxGeometry x="545" y="535" width="60" height="30" as="geometry" />
        </mxCell>
        <mxCell id="81QYwBYxxO3Fx5dXEa7t-13" value="Round Robin" style="text;html=1;strokeColor=none;fillColor=none;align=center;verticalAlign=middle;whiteSpace=wrap;rounded=0;" vertex="1" parent="1">
          <mxGeometry x="300" y="60" width="250" height="30" as="geometry" />
        </mxCell>
        <mxCell id="81QYwBYxxO3Fx5dXEa7t-18" style="edgeStyle=orthogonalEdgeStyle;rounded=0;orthogonalLoop=1;jettySize=auto;html=1;entryX=0.014;entryY=0.413;entryDx=0;entryDy=0;entryPerimeter=0;" edge="1" parent="1" source="81QYwBYxxO3Fx5dXEa7t-14" target="81QYwBYxxO3Fx5dXEa7t-16">
          <mxGeometry relative="1" as="geometry" />
        </mxCell>
        <mxCell id="81QYwBYxxO3Fx5dXEa7t-14" value="" style="rounded=1;whiteSpace=wrap;html=1;rotation=90;" vertex="1" parent="1">
          <mxGeometry x="327.5" y="720" width="175" height="110" as="geometry" />
        </mxCell>
        <mxCell id="81QYwBYxxO3Fx5dXEa7t-17" style="edgeStyle=orthogonalEdgeStyle;rounded=0;orthogonalLoop=1;jettySize=auto;html=1;entryX=0.54;entryY=1.045;entryDx=0;entryDy=0;entryPerimeter=0;" edge="1" parent="1" source="81QYwBYxxO3Fx5dXEa7t-15" target="81QYwBYxxO3Fx5dXEa7t-14">
          <mxGeometry relative="1" as="geometry" />
        </mxCell>
        <mxCell id="81QYwBYxxO3Fx5dXEa7t-15" value="" style="rounded=1;whiteSpace=wrap;html=1;" vertex="1" parent="1">
          <mxGeometry x="30" y="740" width="210" height="80" as="geometry" />
        </mxCell>
        <mxCell id="81QYwBYxxO3Fx5dXEa7t-16" value="" style="rounded=1;whiteSpace=wrap;html=1;" vertex="1" parent="1">
          <mxGeometry x="590" y="740" width="210" height="80" as="geometry" />
        </mxCell>
        <mxCell id="81QYwBYxxO3Fx5dXEa7t-19" value="client" style="text;html=1;strokeColor=none;fillColor=none;align=center;verticalAlign=middle;whiteSpace=wrap;rounded=0;fontSize=15;" vertex="1" parent="1">
          <mxGeometry x="80" y="840" width="60" height="30" as="geometry" />
        </mxCell>
        <mxCell id="81QYwBYxxO3Fx5dXEa7t-20" value="Could be a server acting as a client" style="text;html=1;strokeColor=none;fillColor=none;align=center;verticalAlign=middle;whiteSpace=wrap;rounded=0;" vertex="1" parent="1">
          <mxGeometry x="40" y="870" width="140" height="30" as="geometry" />
        </mxCell>
        <mxCell id="81QYwBYxxO3Fx5dXEa7t-21" value="Calling the server through a proxy" style="text;html=1;strokeColor=none;fillColor=none;align=center;verticalAlign=middle;whiteSpace=wrap;rounded=0;" vertex="1" parent="1">
          <mxGeometry x="625" y="870" width="140" height="30" as="geometry" />
        </mxCell>
        <mxCell id="81QYwBYxxO3Fx5dXEa7t-22" value="Server" style="text;html=1;strokeColor=none;fillColor=none;align=center;verticalAlign=middle;whiteSpace=wrap;rounded=0;fontSize=15;" vertex="1" parent="1">
          <mxGeometry x="665" y="840" width="60" height="30" as="geometry" />
        </mxCell>
        <mxCell id="81QYwBYxxO3Fx5dXEa7t-23" value="Reverse Proxy" style="text;html=1;strokeColor=none;fillColor=none;align=center;verticalAlign=middle;whiteSpace=wrap;rounded=0;" vertex="1" parent="1">
          <mxGeometry x="385" y="880" width="60" height="30" as="geometry" />
        </mxCell>
        <mxCell id="81QYwBYxxO3Fx5dXEa7t-24" value="http util - reverse proxy" style="text;html=1;strokeColor=none;fillColor=none;align=center;verticalAlign=middle;whiteSpace=wrap;rounded=0;" vertex="1" parent="1">
          <mxGeometry x="355" y="910" width="140" height="30" as="geometry" />
        </mxCell>
        <mxCell id="81QYwBYxxO3Fx5dXEa7t-27" style="edgeStyle=orthogonalEdgeStyle;rounded=0;orthogonalLoop=1;jettySize=auto;html=1;" edge="1" parent="1" source="81QYwBYxxO3Fx5dXEa7t-25" target="81QYwBYxxO3Fx5dXEa7t-26">
          <mxGeometry relative="1" as="geometry" />
        </mxCell>
        <mxCell id="81QYwBYxxO3Fx5dXEa7t-25" value="Loadbalancers" style="text;html=1;strokeColor=none;fillColor=none;align=center;verticalAlign=middle;whiteSpace=wrap;rounded=0;fontSize=18;" vertex="1" parent="1">
          <mxGeometry x="60" y="1090" width="110" height="30" as="geometry" />
        </mxCell>
        <mxCell id="81QYwBYxxO3Fx5dXEa7t-26" value="struct" style="rounded=1;whiteSpace=wrap;html=1;" vertex="1" parent="1">
          <mxGeometry x="300" y="1075" width="120" height="60" as="geometry" />
        </mxCell>
        <mxCell id="81QYwBYxxO3Fx5dXEa7t-28" value="port" style="text;html=1;strokeColor=none;fillColor=none;align=center;verticalAlign=middle;whiteSpace=wrap;rounded=0;" vertex="1" parent="1">
          <mxGeometry x="502.5" y="1040" width="60" height="30" as="geometry" />
        </mxCell>
        <mxCell id="81QYwBYxxO3Fx5dXEa7t-29" value="servers" style="text;html=1;strokeColor=none;fillColor=none;align=center;verticalAlign=middle;whiteSpace=wrap;rounded=0;" vertex="1" parent="1">
          <mxGeometry x="510" y="1090" width="60" height="30" as="geometry" />
        </mxCell>
        <mxCell id="81QYwBYxxO3Fx5dXEa7t-30" value="Round Robin Count" style="text;html=1;strokeColor=none;fillColor=none;align=center;verticalAlign=middle;whiteSpace=wrap;rounded=0;" vertex="1" parent="1">
          <mxGeometry x="510" y="1135" width="80" height="30" as="geometry" />
        </mxCell>
        <mxCell id="81QYwBYxxO3Fx5dXEa7t-31" value="function" style="rounded=1;whiteSpace=wrap;html=1;" vertex="1" parent="1">
          <mxGeometry x="700" y="1075" width="120" height="60" as="geometry" />
        </mxCell>
        <mxCell id="81QYwBYxxO3Fx5dXEa7t-32" value="create a new loadbalancer" style="text;html=1;strokeColor=none;fillColor=none;align=center;verticalAlign=middle;whiteSpace=wrap;rounded=0;" vertex="1" parent="1">
          <mxGeometry x="720" y="1150" width="80" height="30" as="geometry" />
        </mxCell>
        <mxCell id="81QYwBYxxO3Fx5dXEa7t-35" style="edgeStyle=orthogonalEdgeStyle;rounded=0;orthogonalLoop=1;jettySize=auto;html=1;entryX=0;entryY=0.5;entryDx=0;entryDy=0;" edge="1" parent="1" source="81QYwBYxxO3Fx5dXEa7t-33" target="81QYwBYxxO3Fx5dXEa7t-34">
          <mxGeometry relative="1" as="geometry" />
        </mxCell>
        <mxCell id="81QYwBYxxO3Fx5dXEa7t-33" value="servers" style="text;html=1;strokeColor=none;fillColor=none;align=center;verticalAlign=middle;whiteSpace=wrap;rounded=0;fontSize=18;" vertex="1" parent="1">
          <mxGeometry x="55" y="1270" width="110" height="30" as="geometry" />
        </mxCell>
        <mxCell id="81QYwBYxxO3Fx5dXEa7t-34" value="struct" style="rounded=1;whiteSpace=wrap;html=1;" vertex="1" parent="1">
          <mxGeometry x="305" y="1255" width="120" height="60" as="geometry" />
        </mxCell>
        <mxCell id="81QYwBYxxO3Fx5dXEa7t-36" value="Address" style="text;html=1;strokeColor=none;fillColor=none;align=center;verticalAlign=middle;whiteSpace=wrap;rounded=0;" vertex="1" parent="1">
          <mxGeometry x="510" y="1240" width="60" height="30" as="geometry" />
        </mxCell>
        <mxCell id="81QYwBYxxO3Fx5dXEa7t-37" value="Proxy" style="text;html=1;strokeColor=none;fillColor=none;align=center;verticalAlign=middle;whiteSpace=wrap;rounded=0;" vertex="1" parent="1">
          <mxGeometry x="520" y="1300" width="60" height="30" as="geometry" />
        </mxCell>
        <mxCell id="81QYwBYxxO3Fx5dXEa7t-38" value="function" style="rounded=1;whiteSpace=wrap;html=1;" vertex="1" parent="1">
          <mxGeometry x="700" y="1232.5" width="120" height="60" as="geometry" />
        </mxCell>
        <mxCell id="81QYwBYxxO3Fx5dXEa7t-39" value="create a new server" style="text;html=1;strokeColor=none;fillColor=none;align=center;verticalAlign=middle;whiteSpace=wrap;rounded=0;" vertex="1" parent="1">
          <mxGeometry x="720" y="1317.5" width="80" height="20" as="geometry" />
        </mxCell>
        <mxCell id="81QYwBYxxO3Fx5dXEa7t-40" value="Method" style="rounded=1;whiteSpace=wrap;html=1;" vertex="1" parent="1">
          <mxGeometry x="320" y="1450" width="120" height="30" as="geometry" />
        </mxCell>
        <mxCell id="81QYwBYxxO3Fx5dXEa7t-41" value="Method" style="rounded=1;whiteSpace=wrap;html=1;" vertex="1" parent="1">
          <mxGeometry x="320" y="1520" width="120" height="30" as="geometry" />
        </mxCell>
        <mxCell id="81QYwBYxxO3Fx5dXEa7t-43" style="edgeStyle=orthogonalEdgeStyle;rounded=0;orthogonalLoop=1;jettySize=auto;html=1;entryX=0;entryY=0.5;entryDx=0;entryDy=0;" edge="1" parent="1" source="81QYwBYxxO3Fx5dXEa7t-42" target="81QYwBYxxO3Fx5dXEa7t-40">
          <mxGeometry relative="1" as="geometry" />
        </mxCell>
        <mxCell id="81QYwBYxxO3Fx5dXEa7t-42" value="get address of server" style="text;html=1;strokeColor=none;fillColor=none;align=center;verticalAlign=middle;whiteSpace=wrap;rounded=0;fontSize=18;" vertex="1" parent="1">
          <mxGeometry x="30" y="1450" width="180" height="30" as="geometry" />
        </mxCell>
        <mxCell id="81QYwBYxxO3Fx5dXEa7t-45" style="edgeStyle=orthogonalEdgeStyle;rounded=0;orthogonalLoop=1;jettySize=auto;html=1;entryX=0;entryY=0.5;entryDx=0;entryDy=0;" edge="1" parent="1" source="81QYwBYxxO3Fx5dXEa7t-44" target="81QYwBYxxO3Fx5dXEa7t-41">
          <mxGeometry relative="1" as="geometry" />
        </mxCell>
        <mxCell id="81QYwBYxxO3Fx5dXEa7t-44" value="check if the server is alive" style="text;html=1;strokeColor=none;fillColor=none;align=center;verticalAlign=middle;whiteSpace=wrap;rounded=0;fontSize=18;" vertex="1" parent="1">
          <mxGeometry x="30" y="1520" width="180" height="30" as="geometry" />
        </mxCell>
        <mxCell id="81QYwBYxxO3Fx5dXEa7t-46" value="Server&lt;br&gt;Interface" style="rounded=1;whiteSpace=wrap;html=1;" vertex="1" parent="1">
          <mxGeometry x="625" y="1440" width="190" height="110" as="geometry" />
        </mxCell>
        <mxCell id="81QYwBYxxO3Fx5dXEa7t-47" value="Address()" style="text;html=1;strokeColor=none;fillColor=none;align=center;verticalAlign=middle;whiteSpace=wrap;rounded=0;fontSize=18;" vertex="1" parent="1">
          <mxGeometry x="850" y="1440" width="110" height="30" as="geometry" />
        </mxCell>
        <mxCell id="81QYwBYxxO3Fx5dXEa7t-48" value="isAlive()" style="text;html=1;strokeColor=none;fillColor=none;align=center;verticalAlign=middle;whiteSpace=wrap;rounded=0;fontSize=18;" vertex="1" parent="1">
          <mxGeometry x="850" y="1480" width="110" height="30" as="geometry" />
        </mxCell>
        <mxCell id="81QYwBYxxO3Fx5dXEa7t-49" value="Server()" style="text;html=1;strokeColor=none;fillColor=none;align=center;verticalAlign=middle;whiteSpace=wrap;rounded=0;fontSize=18;" vertex="1" parent="1">
          <mxGeometry x="860" y="1520" width="110" height="30" as="geometry" />
        </mxCell>
        <mxCell id="81QYwBYxxO3Fx5dXEa7t-54" style="edgeStyle=orthogonalEdgeStyle;rounded=0;orthogonalLoop=1;jettySize=auto;html=1;" edge="1" parent="1" source="81QYwBYxxO3Fx5dXEa7t-51" target="81QYwBYxxO3Fx5dXEa7t-52">
          <mxGeometry relative="1" as="geometry" />
        </mxCell>
        <mxCell id="81QYwBYxxO3Fx5dXEa7t-51" value="Main func" style="rounded=1;whiteSpace=wrap;html=1;" vertex="1" parent="1">
          <mxGeometry x="40" y="1740" width="120" height="60" as="geometry" />
        </mxCell>
        <mxCell id="81QYwBYxxO3Fx5dXEa7t-55" style="edgeStyle=orthogonalEdgeStyle;rounded=0;orthogonalLoop=1;jettySize=auto;html=1;" edge="1" parent="1" source="81QYwBYxxO3Fx5dXEa7t-52" target="81QYwBYxxO3Fx5dXEa7t-53">
          <mxGeometry relative="1" as="geometry" />
        </mxCell>
        <mxCell id="81QYwBYxxO3Fx5dXEa7t-52" value="&amp;nbsp;Server Proxy Function" style="rounded=1;whiteSpace=wrap;html=1;" vertex="1" parent="1">
          <mxGeometry x="330" y="1740" width="120" height="60" as="geometry" />
        </mxCell>
        <mxCell id="81QYwBYxxO3Fx5dXEa7t-53" value="Get Next Available&lt;br&gt;server function" style="rounded=1;whiteSpace=wrap;html=1;" vertex="1" parent="1">
          <mxGeometry x="600" y="1740" width="120" height="60" as="geometry" />
        </mxCell>
        <mxCell id="81QYwBYxxO3Fx5dXEa7t-56" value="create server list" style="text;html=1;strokeColor=none;fillColor=none;align=center;verticalAlign=middle;whiteSpace=wrap;rounded=0;fontSize=18;" vertex="1" parent="1">
          <mxGeometry x="180" y="1790" width="110" height="30" as="geometry" />
        </mxCell>
        <mxCell id="81QYwBYxxO3Fx5dXEa7t-57" value="check if server is alive&lt;br&gt;go to net server&amp;nbsp;&lt;br&gt;use round robin iterator" style="text;html=1;strokeColor=none;fillColor=none;align=center;verticalAlign=middle;whiteSpace=wrap;rounded=0;fontSize=18;" vertex="1" parent="1">
          <mxGeometry x="770" y="1800" width="190" height="30" as="geometry" />
        </mxCell>
      </root>
    </mxGraphModel>
  </diagram>
</mxfile>
